# xmcd
#
# Track frame offsets:
#	150
#	15523
#	28859
#	40587
#	52327
#	64992
#	77135
#	86183
#	98925
#	114261
#	126189
#	141071
#	150045
#
# Disc length: 2159 seconds
# Revision: 1
# Processed by: cddbd v1.5.2PL0 Copyright (c) Steve Scherf et al.
# Submitted via: dBpowerAMP V12.0
#
DISCID=a4086d0d
DTITLE=Old Man Luedecke - Tender Is the Night
DYEAR=2012
DGENRE=Country
TTITLE0=Kingdom Come
TTITLE1=Jonah and the Whale
TTITLE2=Tortoise and the Hare
TTITLE3=Tender Is the Night
TTITLE4=Broken Heart Buddy
TTITLE5=Little Stream of Whiskey
TTITLE6=A&W Song
TTITLE7=I'm Fine (I Am, I Am)
TTITLE8=Song for Ian Tyson
TTITLE9=This May Hurt a Bit
TTITLE10=Can't Count Tears in the Ocean
TTITLE11=Roll in My Sweet Baby's Arms
TTITLE12=Long Suffering Jesus
EXTD=
EXTT0=
EXTT1=
EXTT2=
EXTT3=
EXTT4=
EXTT5=
EXTT6=
EXTT7=
EXTT8=
EXTT9=
EXTT10=
EXTT11=
EXTT12=
PLAYORDER=
